<svg xmlns="http://www.w3.org/2000/svg" width="275" height="53" fill="none" viewBox="0 0 275 53">
  <path fill="url(#a)" d="M64.027 27.535c-.079-.02-.148-.039-.395-.097.366.498.623.918.938 1.28 2.222 2.538 2.321 5.36 1.186 8.359a1.18 1.18 0 0 1-.07.166c-.651 1.298-.572 1.552.701 2.216-.632.918-.237 1.983.82 2.276.138.039.257.303.286.488.06.283 0 .586.06.87.089.468.237.917.365 1.425 3.585-.547 7.248-1.103 10.941-1.67l-.276-1.748c-1.235-.205-1.58-1.21-1.758-2.363-.04-.264-.237-.508-.494-.703 0-.04 0-.088.03-.108.85-.625.77-1.435.504-2.304a12.992 12.992 0 0 0-3.13-5.264c-.13-.137-.267-.313-.287-.479-.128-.986-.711-1.699-1.373-2.373-.177-.176-.365-.322-.227-.674.08-.195-.148-.527-.296-.771-.138-.225-.346-.4-.612-.703 1.007.44 1.678 1.035 2.142 1.875.307.537.633 1.074.998 1.572.138.186.424.264.592.371.218-.498.395-.918.593-1.367.257.146.484.264.7.4.593.371.761.323 1.344-.244.415-.41.197-.781-.08-1.074-.404-.42-.503-.889-.621-1.436-.257-1.191-.662-2.353-.998-3.535-.04-.127-.128-.273-.098-.38.316-1.202-.237-2.022-1.165-2.686.79-1.084.839-1.69.148-2.588-.78.41-1.6.781-2.36 1.25-.237.146-.316.547-.514.898-.938-.537-1.649.225-2.449.596-.987.459-1.935.996-2.893 1.514-.109.058-.158.214-.237.332-.464-.176-.612.02-.257.44.138.165.296.312.385.546a68.983 68.983 0 0 0-.889-.84c-.069.078-.128.156-.197.235.296.283.602.556.899.84-.05.058-.1.126-.148.185-.395-.303-.79-.596-1.185-.899-.03.03-.06.05-.09.079.168.175.326.351.534.576-.573.078-.563.37-.296.752l-.88-.801-.157.117c.484.742.958 1.475 1.441 2.217-.02.02-.03.04-.049.059-.247-.166-.484-.332-.73-.498-.03.029-.07.048-.1.078.307.478.603.947.968 1.523-.217-.03-.385-.049-.632-.078.148.459.297.879.435 1.309-.05.02-.109.039-.158.058-.514-.625-1.037-1.25-1.55-1.865-.06.049-.129.088-.188.137.464 1.113 1.797 1.826 1.649 3.252l-.8-.733-.02-.01Z"/>
  <path fill="url(#b)" d="M102.687 32.428c.099.596.217 1.153.266 1.71.03.37.178.497.544.546.177.02.424.195.493.352.306.771.711 1.435 1.402 1.943.198.147.228.498.425.645.484.39 1.037.712 1.531 1.093.089.069.089.274.089.42.009.215-.06.45 0 .645.128.4.335.771.533 1.22-5.52.87-10.892 1.71-16.274 2.56l-.375-2.306c.593-.205.81-.888 1.076-1.494.425-.947.968-1.875.85-2.988-.02-.186.227-.518.404-.566.386-.108.336-.342.307-.596a48.454 48.454 0 0 0-.277-1.729c.691-.234.75-.361.662-1.064-.03-.235.069-.479.108-.713.168-.977.435-1.953.484-2.94.07-1.308.01-2.627-.06-3.935-.048-.791-.236-1.582-.335-2.373-.069-.489-.108-.977-.148-1.475-.04-.625-.296-.781-.918-.752-.721.02-1.452-.068-2.173-.137-.158-.02-.296-.166-.444-.244.128-.166.227-.37.385-.508.168-.136.385-.205.583-.302.306-.147.651-.254.622-.723 0-.107.276-.342.375-.313.533.118.346-.312.494-.507-.356.166-.474.058-.553-.274-.09-.342-.297-.644-.524-.937.129-.362-.059-.576-.404-.772-1.403-.8-2.193-2.06-2.568-3.564-.296-1.201.07-2.364.494-3.487.612-1.63 1.55-3.086 2.607-4.463.257-.332.355-.556-.06-.85-.167-.116-.325-.468-.266-.634.089-.244.346-.498.602-.615.504-.244 1.027-.342 1.353.488.06-.303.089-.459.119-.606.7.098.75.41.207 1.465.444.352.889.743 1.373 1.065.345.234.395.43.227.82a12.243 12.243 0 0 0-.77 2.158c-.07.284.177.645.305 1.045.287-.888.544-1.65.79-2.422.07.02.139.04.208.069-.119.508-.247 1.006-.365 1.513-.158.674-.356 1.338-.455 2.012-.04.274.129.576.227.86.01.029.247.02.247.01.04-.284.129-.577.07-.84-.238-.977.246-1.827.444-2.725.02-.078.148-.127.276-.235.07.293.129.518.178.743h.079c.099-.41.198-.801.296-1.202.06 0 .119.01.188.02.276.674-.435 1.328-.08 2.031.179-.537.366-1.074.564-1.66 2.182 2.139 3.199 5.664.326 8.213.217.244.493.44.148.85-.287.342.089 1.299.424 1.63.464.47.988.645 1.63.674.148 0 .365.166.424.303.04.098-.118.352-.247.41-.73.323-1.461.655-2.221.87-.405.117-.603.224-.494.644.267 1.162.533 2.324.8 3.477.04.175.098.351.138.537.276 1.133.434 2.324.869 3.398.474 1.172.76 2.48 1.846 3.36.139.107.139.39.188.596.089.36.138.752.721.566l.01-.01Zm-7.465-14.912c.503-.41.444-.899.286-1.377-.05-.147-.257-.293-.425-.342-.079-.03-.276.137-.345.254-.346.635-.178 1.123.484 1.465Zm.454 6.807c.207.507.543.869.7.703.208-.215.396-.596.356-.88-.03-.253-.375-.468-.582-.702l-.474.879ZM94.372 6.695c-.375.303-.474 1.192-.148 1.504.06.059.385-.01.395-.068.119-.508.257-1.026-.247-1.436Zm3.348 22.843c-.089-.108-.257-.46-.405-.46-.425.02-.395.381-.346.704.02.107 0 .234.06.322.059.107.177.273.266.264.138 0 .336-.098.405-.215.07-.127.02-.313.02-.615Zm-1.867-14.776-.641.058-.129.147c.158.185.306.508.474.518.415.019.405-.323.296-.723Zm-.483 4.902c-.178-.156-.306-.283-.445-.4-.059.166-.197.342-.168.488.03.166.218.313.326.469.08-.166.168-.332.277-.557h.01Z"/>
  <path fill="url(#c)" d="M41.69 13.307c.179-.078.346-.157.574-.254.049.683.088 1.308.128 1.924h.217c.04-.127.129-.264.109-.381-.109-.674.553-.82.859-1.201.138-.166.583-.079.523.38-.03.215-.049.43-.069.557.296.068.533.137.87.215-.06.03.029.02.048-.03.139-.282.247-.82.395-.82.474-.02.958.137 1.432.235.109.02.208.088.247.107.09.283.168.537.306.967.544-1.143.731-1.172 1.462-.44.71-.302 1.432.245 1.382 1.006-.03.4.03.81.208 1.25.108-.322.217-.654.345-1.025.148.205.287.39.445.605.128-.175.237-.312.345-.459.07.04.148.069.158.108.04.205.129.43.09.625a124.908 124.908 0 0 1-.771 3.193c-.06.254-.158.508-.227.762-.168.664-.494 1.055-1.264.752-.139-.059-.366.059-.534.127-.306.137-.592.303-1.036.527.01-.049-.05.098-.07.235-.345 2.539-.76 5.078-.987 7.627-.108 1.27.148 2.568.227 3.857.01.196-.04.39-.03.596 0 .147.03.4.09.41.8.186.414.733.375 1.162-.02.244-.129.479-.109.713 0 .176.099.44.237.498.514.244.533.616.474 1.104-.079.625-.148 1.27-.099 1.894.06.713.445 1.28 1.027 1.553-.138.772-.266 1.484-.405 2.236-4.305-.761-8.63-1.533-12.906-2.294-.05-.655-.108-1.29-.128-1.934 0-.108.158-.235.257-.342.316-.351.404-.674-.09-.976-.542-.332-.849-.743-.513-1.416.139-.294.158-.645.208-.967.059-.489.227-.82.8-.899.157-.02.345-.293.404-.488.119-.352.148-.733.227-1.104.03-.127.07-.302.158-.341 1.047-.45 1.343-1.495 1.699-2.354 1.323-3.203 1.965-6.602 2.656-9.98 0-.04-.02-.089 0 .029-.424-.4-.75-.704-1.086-1.016l.089-.117a3.69 3.69 0 0 1-.326-.04c-.968-.155-.938-.155-.889-1.142.09-1.67.148-3.35.178-5.03.02-.956.01-1.005.948-.83.454.089.889.264 1.323.401v.166l.02.059Zm5.718 3.564h.198l-.099-1.865c-.405.723-.444 1.299-.089 1.875l-.01-.01Z"/>
  <path fill="url(#d)" fill-rule="evenodd" d="m0 21.813 7.969 4.238-2.45 8.487 6.736-5.45 7.968 5.45-3.673-7.881 6.735-5.45h-7.97l-3.06-8.486-2.45 9.092H0Z" clip-rule="evenodd"/>
  <path fill="url(#e)" d="M218.596 27.535c.079-.02.148-.039.395-.097-.366.498-.622.918-.938 1.28-2.222 2.538-2.321 5.36-1.185 8.359.02.058.039.107.069.166.652 1.298.573 1.552-.701 2.216.632.918.237 1.983-.82 2.276-.138.039-.257.303-.286.488-.059.283 0 .586-.059.87-.089.468-.237.917-.366 1.425-3.584-.547-7.248-1.103-10.941-1.67l.277-1.748c1.234-.205 1.58-1.21 1.757-2.363.04-.264.237-.508.494-.703 0-.04 0-.088-.03-.108-.849-.625-.77-1.435-.503-2.304a12.996 12.996 0 0 1 3.13-5.264c.128-.137.267-.313.286-.479.129-.986.711-1.699 1.373-2.373.178-.176.365-.322.227-.674-.079-.195.148-.527.296-.771.139-.225.346-.4.613-.703-1.008.44-1.679 1.035-2.143 1.875a16.145 16.145 0 0 1-.998 1.572c-.138.186-.424.264-.592.371-.217-.498-.395-.918-.593-1.367-.256.146-.483.264-.701.4-.592.371-.76.323-1.343-.244-.414-.41-.197-.781.079-1.074.405-.42.504-.889.622-1.436.257-1.191.662-2.353.998-3.535.039-.127.128-.273.099-.38-.316-1.202.237-2.022 1.165-2.686-.79-1.084-.84-1.69-.148-2.588.78.41 1.599.781 2.36 1.25.237.146.316.547.513.898.938-.537 1.649.225 2.449.596.988.459 1.936.996 2.893 1.514.109.058.158.214.237.332.465-.176.613.02.257.44-.138.165-.296.312-.385.546.296-.283.593-.566.889-.84.069.078.128.156.197.235-.296.283-.602.556-.898.84.049.058.098.126.148.185.395-.303.79-.596 1.185-.899.029.03.059.05.089.079-.168.175-.326.351-.534.576.573.078.563.37.297.752.296-.264.592-.537.878-.801l.158.117c-.483.742-.957 1.475-1.441 2.217.019.02.029.04.049.059.247-.166.484-.332.731-.498.029.029.069.048.099.078-.307.478-.603.947-.968 1.523.217-.03.385-.049.632-.078-.148.459-.296.879-.435 1.309.05.02.109.039.158.058.514-.625 1.037-1.25 1.551-1.865.059.049.128.088.187.137-.464 1.113-1.797 1.826-1.649 3.252l.8-.733.02-.01Z"/>
  <path fill="url(#f)" d="M180.657 31.862c.05-.205.05-.489.188-.596 1.076-.87 1.372-2.188 1.846-3.36.435-1.074.593-2.255.869-3.398.04-.176.099-.351.139-.537.266-1.162.533-2.324.8-3.477.098-.43-.089-.527-.494-.644-.761-.215-1.491-.557-2.222-.87-.128-.058-.286-.312-.247-.41.05-.136.267-.293.425-.302.632-.03 1.165-.215 1.629-.674.336-.342.711-1.29.425-1.631-.346-.41-.079-.605.148-.85-2.874-2.558-1.857-6.074.326-8.213.197.586.385 1.123.563 1.66.355-.693-.356-1.357-.079-2.03.059 0 .118-.01.187-.02.099.4.198.79.296 1.191h.079c.06-.215.109-.44.178-.732.129.107.257.156.277.234.197.899.681 1.748.444 2.725-.059.263.03.556.069.84 0 0 .237.02.247-.01.099-.283.267-.586.227-.86-.099-.683-.296-1.347-.454-2.011a92.397 92.397 0 0 0-.365-1.514c.069-.02.138-.04.207-.068.247.771.503 1.533.79 2.422.128-.4.375-.762.306-1.045a11.984 11.984 0 0 0-.77-2.159c-.178-.39-.119-.586.227-.82.484-.332.918-.713 1.372-1.064-.543-1.045-.493-1.358.208-1.465l.118.605c.326-.82.85-.722 1.353-.488.247.117.504.371.602.615.06.166-.098.518-.266.635-.415.293-.316.518-.059.85 1.056 1.377 1.994 2.832 2.607 4.463.424 1.123.79 2.285.493 3.486-.375 1.504-1.165 2.764-2.567 3.564-.346.196-.533.41-.405.772-.227.283-.434.596-.523.937-.089.342-.198.44-.553.274.148.195-.04.625.493.508.109-.02.386.215.376.312-.03.469.316.567.622.723.197.098.414.166.582.303.158.127.257.332.385.507-.148.088-.286.235-.444.245-.721.068-1.451.166-2.172.136-.622-.02-.879.127-.919.752-.029.489-.079.987-.148 1.475-.108.79-.296 1.582-.336 2.373-.079 1.309-.128 2.627-.059 3.936.05.986.316 1.962.484 2.94.04.233.138.487.109.712-.079.703-.02.83.661 1.065-.089.566-.187 1.152-.276 1.728-.04.254-.089.488.306.596.178.049.425.38.405.566-.119 1.113.424 2.041.849 2.988.267.596.484 1.28 1.076 1.495-.128.78-.247 1.523-.375 2.304-5.391-.85-10.753-1.69-16.273-2.558.207-.46.404-.83.533-1.221.069-.195 0-.43 0-.645 0-.146 0-.351.089-.42.503-.38 1.046-.703 1.53-1.093.188-.156.227-.508.425-.645.691-.498 1.096-1.172 1.402-1.943.069-.166.316-.332.494-.352.365-.039.513-.175.543-.547.049-.566.168-1.123.267-1.709.592.176.641-.205.72-.566l.01.01Zm7.229-15.811c-.07-.117-.257-.273-.346-.254-.168.049-.375.185-.425.342-.158.478-.227.967.287 1.377.661-.342.829-.84.484-1.465Zm-1.422 7.393c-.208.234-.553.449-.583.703-.039.283.148.664.356.879.158.156.493-.205.701-.703l-.474-.88Zm1.53-15.313c.01.058.336.127.395.068.326-.312.227-1.201-.148-1.504-.494.41-.355.928-.247 1.436Zm-3.081 22.022c.069.117.257.205.405.215.089 0 .208-.157.267-.264.049-.088.039-.215.059-.322.049-.323.079-.684-.346-.704-.148 0-.306.342-.404.46 0 .302-.05.497.019.615Zm2.143-14.668c.158 0 .316-.332.474-.518l-.128-.147c-.208-.02-.415-.039-.642-.058-.109.4-.129.742.296.723Zm.474 4.736c.119-.156.296-.293.326-.469.03-.146-.109-.322-.168-.488-.128.117-.267.244-.444.4.118.235.197.4.276.557h.01Z"/>
  <path fill="url(#g)" d="M240.942 13.13c.445-.136.879-.312 1.323-.4.929-.175.929-.126.948.83.03 1.68.099 3.35.178 5.03.05.986.079.986-.889 1.143-.108.02-.217.029-.325.039l.088.117c-.325.312-.661.615-1.086 1.015.02-.107 0-.068 0-.029.691 3.38 1.323 6.778 2.657 9.98.355.86.651 1.905 1.698 2.354.089.04.138.225.158.342.079.361.109.752.227 1.104.059.195.247.468.405.488.563.078.731.42.8.898.039.333.059.684.207.967.326.674.03 1.084-.513 1.416-.494.293-.395.616-.089.977.099.107.257.234.257.342-.02.634-.079 1.279-.129 1.933-4.276.762-8.601 1.524-12.906 2.295l-.405-2.236c.583-.273.968-.84 1.027-1.553.049-.625-.02-1.27-.099-1.894-.059-.489-.039-.86.474-1.104.129-.058.227-.322.237-.498.01-.234-.089-.478-.108-.713-.04-.43-.425-.977.375-1.162.059-.01.079-.273.089-.41 0-.196-.04-.4-.03-.596.079-1.289.346-2.588.227-3.857-.217-2.55-.642-5.088-.987-7.628-.02-.146-.079-.283-.069-.234-.445-.234-.731-.39-1.037-.527-.168-.078-.395-.186-.533-.127-.78.293-1.096-.088-1.264-.752-.069-.254-.158-.508-.227-.762a123.336 123.336 0 0 1-.771-3.193c-.039-.196.04-.42.089-.625 0-.04.099-.069.158-.108.109.147.217.284.346.46.158-.216.296-.401.444-.606.129.37.237.693.346 1.025.178-.44.227-.85.207-1.25-.049-.771.672-1.308 1.383-1.006.72-.742.908-.713 1.461.44.138-.43.217-.684.306-.967.05-.02.148-.088.247-.107.474-.098.958-.264 1.432-.235.148 0 .257.537.395.82.02.05.108.06.049.03.346-.088.583-.147.869-.215-.02-.127-.039-.342-.069-.557-.059-.459.385-.556.523-.38.307.37.978.527.86 1.2-.02.118.069.255.108.381h.217c.04-.625.079-1.24.129-1.923.227.097.405.175.572.253v-.165l.02-.06Zm-5.816 1.866-.099 1.865h.198c.355-.576.316-1.152-.089-1.875l-.01.01Z"/>
  <path fill="url(#h)" fill-rule="evenodd" d="m265.194 21.813-2.448-9.092-3.062 8.486h-7.968l6.734 5.45-3.673 7.88 7.969-5.449 6.734 5.45-2.449-8.487L275 21.813h-9.806Z" clip-rule="evenodd"/>
  <path fill="url(#i)" d="M159.595 8.121a6.4 6.4 0 0 0-.237-1.396c-.316-1.075-.938-2.041-1.837-2.852-1.076-.977-2.409-1.563-4.088-1.797a10.336 10.336 0 0 0-.761-.078h-.167s-.03-.02-.04-.02a2.68 2.68 0 0 1-.03 1.182s-.316.313-.938.4c.316-.185.632-.332.761-.585.108-.225.158-.586.168-1.016a.088.088 0 0 1-.03-.068c-.01-.06-.03-.118-.04-.186a2.998 2.998 0 0 0-.651-1.299 2.728 2.728 0 0 0-.247-.234c.444 1.142-.632 3.027-.77 3.154-.297-.078-.395-.39-.395-.39 1.076-1.065 1.155-2.686 1.155-2.764a1.97 1.97 0 0 0-.237-.157c-.049-.029-.089-.01-.109 0-.019.01-.049.04-.049.108.01.351-.059.732-.207 1.191-.04.108-.05.118-.158.098a6.417 6.417 0 0 0-1.057-.107c-.079 0-.128-.02-.168-.088a.818.818 0 0 0-.187-.215.616.616 0 0 0-.761-.04.383.383 0 0 0-.158.294v.156a1.606 1.606 0 0 1-.681-.44c-.128-.126-.257-.263-.405-.39a1.92 1.92 0 0 0-.681-.39c-.534-.177-.978.029-1.156.517a2.585 2.585 0 0 0-.128.508.44.44 0 0 0 .197.459c.07.058.149.097.228.136h.009c.06.04.129.079.198.108l.049.03-.019.028s-.05.088-.07.127a2.216 2.216 0 0 0-.246.733c-.01.088-.03.176.039.263.02.03.059.05.099.05a.09.09 0 0 0 .069-.03.388.388 0 0 0 .049-.088c.01-.03.03-.049.05-.068a1.29 1.29 0 0 1 .434-.43v.01l.04.039c.553.908 1.234 1.494 2.073 1.807.05.02.079.039.099.078.049.097.099.215.148.332v.029c0 .01-.02.02-.039.02-.336.02-.642.146-.938.273h-.02c-.138.068-.267.127-.395.186l-.168.078a1.835 1.835 0 0 1-.602.185c-.326.04-.642 0-.929-.127.465.4 1.225.371 1.63.176.464-.225 1.066-.537 1.688-.674l.129.655c-.504-.147-.988 0-1.936.322-.701.234-1.313-.147-1.59-.528a.443.443 0 0 1-.227-.4c0-.117.05-.186.148-.215.109-.03.198 0 .277.069.02.029.049.048.069.078.02.029.049.058.069.088.03.029.059.039.089.039.04 0 .079-.03.099-.069.059-.088.059-.185 0-.302-.148-.293-.553-.44-.889-.323h-.02c-.247.088-.355.244-.365.498 0 .108 0 .244.039.381.149.498.494.83 1.018.996.444.147.938.176 1.55.098.266-.04.523-.117.78-.195l.099-.03a.984.984 0 0 1 .503-.039c.01.05 0 .088-.019.137-.139.361-.405.645-.81.86-.267.136-.464.156-.672.068-.039-.02-.079-.03-.118-.04-.03 0-.059-.01-.089-.019a2.113 2.113 0 0 0-.711-.098c-1.185 0-2.39.01-3.555.02h-.395c-.059 0-.118 0-.178-.01l.02-.088c.02-.078.03-.156.05-.224.158-.899.019-1.524-.455-2.051-.039-.049-.069-.088-.069-.137 0-.058-.02-.117-.029-.176-.01-.068-.03-.146-.04-.214-.03-.215 0-.372.099-.528a.962.962 0 0 0 .099-.8c-.129-.401-.346-.655-.682-.792-.108-.039-.138-.087-.158-.214a.98.98 0 0 0-.365-.655c-.257-.215-.524-.273-.81-.176-.336.108-.543.333-.622.704-.02.068-.02.136-.03.214v.069h-.029s-.069.039-.099.049c-.346.127-.573.38-.671.752-.07.273-.03.537.118.83.01.02.03.049.049.068.03.049.06.078.06.127v.117c0 .322-.02.615-.257.86-.069.068-.109.156-.158.244-.188.361-.257.771-.227 1.24.02.293.089.576.148.81a.328.328 0 0 1-.168.01h-.948c-.948.01-1.935.02-2.903.01-.336 0-.731.02-1.106.166-.227.088-.435.068-.672-.059l-.049-.029c-.069-.039-.128-.068-.188-.107a1.262 1.262 0 0 1-.552-.752c0-.04-.01-.059 0-.078 0-.01.029-.02.059-.03.197-.029.414 0 .651.079a3.952 3.952 0 0 0 1.6.214c.445-.029.79-.127 1.077-.312.375-.235.582-.586.602-1.055a.63.63 0 0 0-.385-.625c-.267-.117-.642-.058-.83.137-.069.078-.108.166-.098.254 0 .097.059.185.148.254.049.039.108.039.158-.02a.59.59 0 0 0 .069-.088c.02-.02.029-.039.049-.058a.268.268 0 0 1 .217-.098c.07 0 .119.02.139.049.029.03.039.078.029.137-.029.234-.168.41-.424.517a1.624 1.624 0 0 1-.859.117 2.109 2.109 0 0 1-.613-.175l-.266-.118a8.801 8.801 0 0 0-.445-.195c-.247-.098-.454-.186-.691-.205-.039 0-.099-.01-.108-.02 0-.01.019-.068.039-.117.01-.03.03-.058.04-.088a.26.26 0 0 1 .039-.078c.039-.088.099-.136.197-.176.8-.312 1.442-.869 1.926-1.66.01-.02.03-.049.04-.068.019-.04.049-.078.069-.117 0-.01.019-.02.029-.02.01 0 .03 0 .05.02.029.02.069.049.098.078l.02.02c.148.117.237.263.336.449.03.048.079.068.128.048.03-.02.05-.058.05-.087 0-.264-.069-.528-.227-.84-.03-.059-.07-.118-.099-.176a.212.212 0 0 0-.03-.049c.02 0 .04-.02.059-.03.07-.029.139-.058.198-.097.118-.068.217-.127.316-.195.109-.069.148-.176.138-.303-.039-.38-.148-.684-.345-.928a.793.793 0 0 0-.711-.312 1.33 1.33 0 0 0-.573.176 2.666 2.666 0 0 0-.77.634 1.813 1.813 0 0 1-.632.47c0-.02 0-.04-.01-.06-.06-.253-.217-.41-.454-.458-.267-.06-.474.029-.632.244l-.02.029s-.05.068-.069.107c-.02.05-.06.069-.119.069-.375 0-.75.039-1.116.117-.049.01-.079 0-.098-.059a5.251 5.251 0 0 1-.168-.615 3.535 3.535 0 0 1-.05-.576.134.134 0 0 0-.069-.117c-.049-.03-.108-.03-.168 0-.286.156-.513.4-.701.742a3.595 3.595 0 0 0-.375 1.084.146.146 0 0 1-.128.127h-.01c-.158.03-.316.039-.464.049-.129.01-.267.02-.395.039a8.598 8.598 0 0 0-2.331.644c-1.441.645-2.508 1.65-3.189 2.989-.464.908-.662 1.933-.622 3.144.029.723.138 1.475.345 2.305.326 1.318.81 2.46 1.481 3.496.692 1.074 1.58 2.05 2.726 2.979.484.39.987.761 1.481 1.123l.593.44c.385.282.789.595 1.155.966.444.44.681.938.75 1.543.079.733-.148 1.328-.691 1.817a3.174 3.174 0 0 1-.494.351c-.019 0-.029.02-.049.02-.049.02-.109.048-.138.107v.039c.059.088.138.127.207.166.346.166.514.46.533.889a2.05 2.05 0 0 1-.148.79c-.02.05-.02.089.02.147.049.059.118.078.178.05.118-.05.247-.079.375-.118l.059-.02a1.273 1.273 0 0 1 1.393.586c.128.205.217.44.286.694.109.4.059.771-.138 1.133-.218.38-.504.595-.889.634h-.01s-.099.01-.128.088v.02l.019.039c.01.02.03.049.04.068.247.342.276.723.079 1.152a1.831 1.831 0 0 1-.672.762c-.019.02-.049.03-.069.04-.029.019-.059.029-.089.048-.029.02-.059.078-.049.117 0 .04.049.079.089.088.039.01.079.01.118.02h.02c.395.02.8-.059 1.225-.225.75-.293 1.392-.79 1.915-1.494.494-.664.701-1.426.632-2.285.02 0 .02-.01.03-.01.01.04.02.078.039.117.03.098.06.205.079.303.04.215.158.38.376.498.227.127.444.264.661.39.257.157.514.313.78.46a.583.583 0 0 1 .316.41c.287 1.172.978 2.07 2.035 2.656.148.078.256.137.365.176.069.03.089.059.089.117v1.055c0 .713 0 1.426.01 2.139 0 .39-.05.78-.148 1.2-.178.704-.455 1.397-.889 2.208a11.471 11.471 0 0 1-2.232 2.91c-.78.742-1.56 1.23-2.39 1.514-.167.058-.177.087-.187.254v2.002l-.03.02a.608.608 0 0 1-.118.048l-4.671 1.865c-.049.02-.099.04-.148.069-.03.02-.069.029-.099.048-.069.03-.099.078-.099.157v2.031l.01.049v.107c.01.156.089.235.247.244h.79c.484 0 .978.01 1.471.05.869.067 1.58.185 2.242.37.938.264 1.649.625 2.222 1.123h.02c.148.137.296.274.424.42.099.117.217.147.366.098h.029l.059-.03a26.478 26.478 0 0 1 2.133-.478c.504-.088 1.017-.146 1.511-.205l.148-.02c.208-.029.425-.039.632-.048.069 0 .129 0 .198-.01.099 0 .138.02.168.107 0 .03.01.05.019.078 0 .02 0 .05.01.069.059.215.178.41.346.596a.975.975 0 0 0 .8.273.926.926 0 0 0 .711-.44c.079-.127.138-.273.187-.468.05-.186.079-.215.277-.205a18.26 18.26 0 0 1 1.817.185 19.46 19.46 0 0 1 2.538.527c.227.06.365.03.523-.136a4.85 4.85 0 0 1 1.639-1.162 9.004 9.004 0 0 1 2.331-.645c.72-.098 1.323-.137 1.876-.146.266 0 .533 0 .8-.01h.345c.05 0 .109 0 .158-.01h.03a.143.143 0 0 0 .089-.117V48.18c0-.136-.06-.234-.198-.293a.685.685 0 0 0-.128-.048l-3.654-1.426c-.365-.147-.74-.293-1.106-.43-.099-.039-.138-.088-.128-.185V44.01c0-.234-.04-.283-.267-.361a6.205 6.205 0 0 1-1.669-.898c-.543-.4-1.017-.89-1.412-1.319-.691-.762-1.293-1.66-1.827-2.754-.039-.088-.029-.136.03-.205.237-.273.474-.547.701-.82a4.92 4.92 0 0 0 .652-.977 3.994 3.994 0 0 0 .395-2.314c-.079-.635-.286-1.172-.652-1.621-.365-.46-.849-.791-1.471-1.006a.729.729 0 0 0-.138-.04c-.099-.019-.188-.038-.227-.097-.05-.068-.04-.156-.03-.254v-.43c.168 0 .306-.088.434-.166h.02c.918-.566 1.827-1.123 2.745-1.68l.751-.458c.148-.088.286-.176.434-.264a.355.355 0 0 0 .158-.215c.04-.156.079-.312.129-.459.019-.049.029-.107.049-.156v.234c.02.655.188 1.24.513 1.739.474.732 1.097 1.299 1.857 1.66a3.144 3.144 0 0 0 1.511.332h.029c.04 0 .129 0 .139-.088 0-.078-.06-.117-.099-.137h-.01s-.049-.03-.069-.049a.422.422 0 0 0-.069-.029 1.602 1.602 0 0 1-.691-.84 1.049 1.049 0 0 1 .098-.967c.02-.039.05-.068.069-.097l.03-.049v-.02c-.039-.156-.148-.166-.237-.175h-.02c-.316-.04-.563-.205-.75-.489a1.345 1.345 0 0 1-.227-.674 2.058 2.058 0 0 1 .563-1.513c.316-.342.72-.469 1.204-.371.129.029.267.068.395.107h.02s.02.01.02.02c.039.02.098.039.158-.03l.019-.02v-.019a2.242 2.242 0 0 1-.167-.79c0-.47.187-.811.592-1.026 0 0 .02-.01.03-.01.049-.02.098-.049.108-.117v-.03a.38.38 0 0 0-.187-.146 2.132 2.132 0 0 1-.504-.332 1.853 1.853 0 0 1-.652-1.094c-.138-.713.03-1.386.484-1.992.178-.234.385-.43.543-.576.415-.371.879-.713 1.324-1.035l.088-.059c.682-.498 1.403-1.035 2.064-1.63 1.63-1.446 2.765-3.214 3.377-5.255.415-1.416.583-2.617.524-3.789l-.069-.039Zm-6.33-2.695c1.037-.41 2.074-.313 3.071.293.474.283.8.722 1.007 1.328.168.478.237 1.006.217 1.592a10.08 10.08 0 0 1-1.165 4.385c-.484.918-1.135 1.748-2.004 2.539-.484.44-.988.85-1.511 1.22-.277.196-.603.43-.919.674l-.108.078c-.445.342-.909.703-1.313 1.114a6.478 6.478 0 0 0-.771.937s0-.01-.01-.02l.297-1.093c.237-.85.474-1.71.701-2.559a541.1 541.1 0 0 1 1.116-3.994l.088-.313.06-.175.019-.05.474.098h.02c.069-.068.079-.136.089-.195v-.039c.138-.596.277-1.172.405-1.767.099-.479-.138-.87-.622-1.006-.296-.078-.593-.166-.889-.244a32.744 32.744 0 0 1-.928-.254 1.63 1.63 0 0 1-.109-.03c-.079-.02-.158-.029-.227-.078v-.02c.109-.117.217-.224.326-.341.405-.42.82-.85 1.284-1.22.385-.304.839-.645 1.402-.87v.01Zm-.672-1.455c-.365.449-1.609 1.757-2.952 2.158 1.205-.703 1.136-1.24-.099-1.524 0 0 1.945-.039 3.051-.634ZM148.95.992c.217-.049.355-.03.493.215-.059-.03-.187-.186-.335-.078.079.293.276 1.445.948 2.08.671.644 1.392.732 1.955.537-.277.137-.889.508-1.689-.098-.8-.615-1.412-1.963-1.441-2.011-.03-.05-.099-.254-.099-.254s-.178-.284.178-.39h-.01Zm-2.449 1.123c-.138-.283-.445-1.338.168-1.328.612 0 .642.889.602 1.348-.079-.625-.632-.81-.573-.215.385 1.347 1.521 1.992 1.876 2.314-1.313-.478-1.935-1.836-2.083-2.119h.01Zm1.994.39c0-.263.218-.478.484-.478h.02c.109.205.257.479.405.703a.483.483 0 0 1-.909-.224Zm-.365 4.679c.484-.186 1.057-.577 1.106-1.338.049-.762-.385-1.495-.385-1.495l.138.06c.198.302.366.732.435 1.483.069.752-.563 1.504-.563 1.504l-.899-.175.168-.04Zm4.098 1.484c.415.146.593.44.415 1.113-.178.674-.435 1.348-.435 1.348s.287-1.348.079-1.7c-.207-.35-2.103-.986-2.429-1.161-.326-.176-2.044-.723-2.044-.723 1.481.342 3.999.976 4.414 1.123ZM141.06 2.642c.415.293.573.752.602 2.07.82.958.375 2.325.375 2.325h-.296c.484-1.435-.079-2.041-.306-2.266.099-1.025-.257-2.138-.592-2.129-.336 0-.534-.078-.642-.244 0 0 .237.069.326.137.088.068.355-.03.533.117v-.01Zm1.007 33.966a12.787 12.787 0 0 1-.197-2.217v-1.113c.009-.371.039-.742.069-1.114.069.743.069 1.485.089 2.217.009.742.029 1.475.029 2.217l.01.01ZM141.04 3.199l-.128 1.582-.208-1.572c-.01-.098.069-.195.168-.195s.178.087.178.185h-.01Zm-.444-2.021s.138.029.138.273h-.356l.208-.273h.01Zm-.78 0 .207.273h-.356c0-.244.139-.273.139-.273h.01Zm-.909 1.103c.178-.205.642-.44 1.175-.566-.227.322.603.38.603.38-1.373-.058-1.659.235-1.857.499-.207.263-.059.869-.059.869-.296-.606-.04-.977.138-1.182Zm.82.928-.129 1.582-.207-1.572c-.01-.098.069-.196.168-.196s.178.088.178.186h-.01Zm-1.077 1.69c.228-.303.445-.577.455-1.143 0-.098-.01-.196-.01-.293.01.107.01.205.01.293.029.342.059.664-.237 1.094-.385.556-.395 1.416-.119 2.148h-.257s-.444-1.23.158-2.11v.01Zm2.064 2.304s-5.796.547-6.122.576c-.326.03-.533.645-.346 1.582l-.424-1.992 6.892-.176v.01Zm-5.727 7.881.247 1.201s-.119-.498-.247-1.2l-1.007-4.942 4.967-.02s-3.644.166-4.009.977c-.395.888-.168 2.744.039 3.974l.01.01Zm-2.054-7.676s-4.315 1.309-4.76 1.807c-.444.498-.207.703-.079 1.67 0 0-.602-1.455-.335-1.875.266-.42 5.174-1.602 5.174-1.602Zm-2.785 7.617-1.037-3.798 1.274-.352c-1.056.469-.237 4.15-.237 4.15Zm3.239-9.375c.464.225 1.393.225 1.797-.38-.197.42-.888.947-1.678.693-.958-.303-1.442-.46-1.946-.313l.129-.654c.622.127 1.234.43 1.698.654Zm-1.945.264c.049.762.632 1.143 1.116 1.328l.168.04-.899.185s-.642-.752-.573-1.504c.069-.752.227-1.182.425-1.485l.138-.058s-.424.732-.375 1.494Zm3.239-2.95.01.07c0-.02 0-.05-.01-.07Zm0 0c-.089-.37-.425-.673-.425-.673l.079-.205c.198.254.306.703.346.879Zm.296-1.513s-.148.332-.592.43c0 0 .424-.196.444-.557.02-.351-.306-.84-.602-1.035 0 0 .711.185.74 1.162h.01Zm-1.027.527c.059-.595-.494-.4-.573.225-.039-.459-.019-1.338.593-1.348.612-.01.316 1.036.178 1.328-.139.284-.751 1.65-2.064 2.14.355-.333 1.491-.987 1.866-2.335v-.01Zm-1.787.606a.482.482 0 0 1-.484.478.465.465 0 0 1-.425-.254 8.71 8.71 0 0 0 .405-.703h.02c.267 0 .484.215.484.479Zm-.612-1.377c-.149-.108-.277.049-.336.078.128-.244.266-.264.494-.215.365.098.177.381.177.381s-.069.205-.098.254c-.03.049-.623 1.406-1.422 2.021-.8.616-1.413.254-1.689.118.563.195 1.284.097 1.945-.557.672-.645.85-1.797.929-2.09v.01ZM129.19.26s.06 1.68 1.176 2.763c0 0-.099.323-.386.4-.138-.126-1.234-2.011-.79-3.154V.26Zm-.967 1.65c0 .508.049.918.177 1.162.129.254.445.39.771.576-.622-.078-.938-.39-.938-.39-.198-.674 0-1.358 0-1.358l-.01.01Zm2.913 2.783c-1.235.293-1.294.83-.079 1.524-1.343-.39-2.597-1.69-2.972-2.139 1.115.586 3.051.615 3.051.615Zm-8.048 2.793c.247-.996.889-1.67 1.906-2.002h.019a3.205 3.205 0 0 1 2.44.147c.335.156.661.351.997.605.395.303.74.596 1.047.909.187.195.375.38.572.576l.227.224c-.108.059-.217.078-.325.108l-.129.029c-.375.107-.74.205-1.116.313-.237.068-.464.126-.701.195-.276.078-.464.244-.543.508a.727.727 0 0 0-.02.38c.149.616.287 1.231.445 1.846.01.059.039.117.079.176.039.068.099.098.168.078.088-.02.177-.049.266-.068.066-.013.109.01.129.068.148.518.296 1.035.454 1.563l1.955 6.826c-.405-.684-.978-1.299-1.787-1.934a48.45 48.45 0 0 0-1.195-.888l-.336-.244a19.966 19.966 0 0 1-1.718-1.397c-1.254-1.172-2.123-2.637-2.597-4.365a11.083 11.083 0 0 1-.356-2.012c-.039-.566 0-1.113.139-1.63l-.02-.01Zm5.727 11.084c-2.38-1.66-4.661-3.144-5.707-5.302-1.047-2.159-1.383-4.356-1.116-6.29-.03.616.424 1.729.8.674-.168 1.963-.158 4.336 1.659 6.67 1.817 2.334 4.157 3.38 5.223 4.493 1.067 1.113 1.877 2.216 1.442 3.974-.039-1.26.079-2.549-2.301-4.209v-.01Zm2.716 3.448.227.79c.296 1.036.592 2.061.898 3.097 0 .029.01.048.02.078v.039c0 .01 0 .02-.01.03a3.926 3.926 0 0 0-1.175-1.427c-.148-.107-.306-.195-.474-.293-.039-.02-.079-.039-.108-.058.424-.674.632-1.416.632-2.256h-.01Zm1.175 6.435c-.296 1.026-.77.909-.593.03.178-.88.237-1.817 0-2.373-.276-.606-.483-.889-1.165-1.455.741.41 2.202 1.69 1.758 3.798Zm1.007-.527L131.343 19c1.817 6.563 3.654 8.867 5.431 10.635l-3.061-1.709Zm2.39-4.863-.968-1.055.612-2.256-.256 2.149.809.927.859 6.944-1.056-6.7v-.01Zm.918.039.217-1.22-1.353-2.696 1.709 2.783-.573 1.133Zm.543 4.316c-.02-.058-.039-.097-.039-.097 0 .01.019.048.039.097.129.352.563 1.553.978 2.12.484.673 2.034.78 2.034.78h-2.508s-.366-2.372-.504-2.9Zm1.442 8.555c-.04.625-.099 1.25-.207 1.875-.05.313-.119.615-.188.928l-.128.45c-.05.146-.109.292-.158.439l.632-7.462.059.938.029.938c.01.625 0 1.26-.029 1.884l-.01.01Zm.602 10.508-.405-.879c-.118-2.93-1.422-5.752-1.629-6.182 1.412 2.422 2.005 5.43 2.034 7.061Zm.247.742.672.528.671-.537s-.217.517.237.732c0 0-.375-.117-.484-.371l-.424.605-.425-.605c-.099.264-.484.38-.484.38.454-.214.227-.732.227-.732h.01Zm.237.694.444.713.435-.723.484.537-.721 1.113.326.254-.04.664-.464.713-.474-.703-.049-.664.316-.264-.731-1.113.484-.537-.01.01Zm1.353-1.436c.02-1.63.583-4.648 1.975-7.08-.198.43-1.491 3.271-1.58 6.201l-.395.88Zm.691 1.875s-.128 1.475-.859 1.084c.01-.058.859-1.084.859-1.084Zm-2.35 1.094c-.731.39-.869-1.084-.869-1.084s.849 1.025.869 1.084Zm-2.291-9.932c.128.371.109.781.049 1.162a3.143 3.143 0 0 1-.414 1.094 2.492 2.492 0 0 1-.85.81 2.11 2.11 0 0 1-1.135.284l2.36-3.36-.01.01Zm-1.925 3.994c.513.39 2.774 2.813 2.774 2.813l.079.283-.375-.068s-1.995-3.008-3.841-3.633c.415.049.849.215 1.363.605Zm2.863 4.121c-1.116-.273-3.367-.82-5.54-.127.247-.205.711-.302.939-.341.414-.078 1.58-.498 4.601.058 0 0-.059.264 0 .4v.01Zm-4.848-3.652c.128.02.256.049.395.078l.237-.947s.039.039.108.098c.297.273.563.585.741.947.109.205.188.42.227.644.03.108.03.225.049.342v.352a1.508 1.508 0 0 1-.296.635 1.771 1.771 0 0 1-.523.449 3.417 3.417 0 0 1-1.175.43c-.069.019-.119.019-.119.019l.711-2.832-.385-.059a7.007 7.007 0 0 1-1.165-.293c.405 0 .8.059 1.195.127v.01Zm-6.35 4.072s.069-.02.168-.029c.553-.088 1.116-.088 1.679-.059.622.04 1.234.137 1.837.293a7.817 7.817 0 0 1 1.728.684c.553.293 1.036.684 1.471 1.113l-6.893-2.002h.01Zm5.708-.41c.207-.068.434-.058.652-.03.217.03.424.089.632.157.414.137.799.371 1.096.694.148.166.256.36.325.566.07.205.099.43.089.645a2.642 2.642 0 0 1-.345 1.23l-2.459-3.272.01.01Zm2.518 3.565c-.109.136-.079.42 0 .605a.655.655 0 0 1 .02-.84c.256-.312.819-1.328 3.219-2.275 0 0-.04.195 0 .361 0 0-2.36.742-3.249 2.149h.01Zm3.13-3.623-.247-3.75s.287 1.962.425 2.968.513 1.202.513 1.202c-.612.058-.691-.42-.691-.42Zm.553 3.564.227-.898c-.493-.4-.543-1.065-.543-1.426.02.654.375 1.172.662 1.348l-.257.966c.079.47.405.743.405.743-.444-.235-.484-.743-.484-.743l-.01.01Zm.227-.049.267-.488.336.967-.336-.547-.267.078v-.01Zm1.185 1.71c-.671 0-.809-.694-.809-.694.266.664.799.557.809.557 0 0 .543.107.8-.557 0 0-.128.693-.8.693Zm.563-1.24.336-.968.276.489-.266-.069-.336.547h-.01Zm.83-.44s-.04.498-.484.742c0 0 .316-.274.395-.752l-.257-.967c.286-.176.632-.693.652-1.348 0 .352-.05 1.026-.534 1.426l.228.899Zm-.158-3.145s.375-.185.503-1.201c.129-1.016.395-2.979.395-2.979l-.217 3.75s-.069.479-.681.42v.01Zm3.841 3.78c.089-.176.108-.47 0-.606-.899-1.406-3.269-2.12-3.269-2.12.04-.165 0-.36 0-.36 2.41.927 2.982 1.933 3.239 2.246a.67.67 0 0 1 .03.84Zm-3.012-4.561c3.022-.586 4.197-.166 4.602-.098.217.04.691.127.938.332-2.183-.674-4.424-.117-5.54.166.059-.146 0-.4 0-.4Zm3.061 3.662a2.699 2.699 0 0 1-.355-1.23c0-.215.019-.44.089-.645.069-.205.177-.4.325-.566.297-.332.682-.557 1.097-.704.207-.068.414-.127.631-.166.218-.029.445-.039.652.03l-2.429 3.29-.01-.009Zm4.454-2.695a9.722 9.722 0 0 1 1.836-.303c.563-.03 1.126-.04 1.679.049.109.01.168.02.168.029l-6.873 2.05c.435-.439.918-.83 1.462-1.132a7.325 7.325 0 0 1 1.728-.693ZM147.044 44c.128-.03.257-.059.385-.078a7.95 7.95 0 0 1 1.195-.137c-.385.136-.77.224-1.165.303l-.385.058.73 2.822s-.039 0-.108-.02a3.647 3.647 0 0 1-1.185-.42 1.773 1.773 0 0 1-.524-.448c-.138-.186-.256-.4-.286-.625l-.02-.088v-.264c0-.117.01-.234.04-.342.039-.224.118-.449.227-.644.187-.361.434-.684.74-.957l.109-.108.247.938V44Zm-.247-1.153c-1.847.645-3.812 3.672-3.812 3.672l-.375.078.079-.293s2.242-2.431 2.755-2.832c.514-.4.948-.566 1.363-.615l-.01-.01Zm-.938-.02c-.395.02-.79-.087-1.136-.273a2.518 2.518 0 0 1-.859-.81 3.374 3.374 0 0 1-.424-1.094c-.07-.38-.089-.791.039-1.162l2.38 3.34Zm-.751-7.412c.287-2.45-2.162-3.35-2.162-3.35v-.292c2.004.664 2.37 2.363 2.162 3.642Zm-2.221-1.66s.019.01.029.01a.647.647 0 0 1 .306.479c.089.605-.019 1.084-.345 1.494 0-.645 0-1.3-.01-1.944 0-.02 0-.039.02-.049v.01Zm.187 2.285c.978-1.601-.098-2.49-.098-2.49v-.195c1.362.683.908 2.734-.662 4.287s-1.945 3.838-2.074 5.45c0 0-.632-1.319-.661-1.368 1.125-4.121 2.508-4.072 3.495-5.674v-.01Zm-.335-5.878c-.03.087.977-7.061.977-7.061l-.622-1.26 1.531-2.52-1.146 2.55.563 1.054s-1.274 7.149-1.303 7.237Zm1.747-7.296.534-1.084-.188-1.582.543 1.7-.889.966Zm1.057-6.611 1.027-6.152s2.212.527 2.054.527c-1.639-.03-2.084 1.504-3.081 5.625Zm2.528 9.512h-.02l.158-.596c.158-.586.326-1.162.484-1.748l.385-1.377.02-.059v.108c.02.176.029.361.059.537.04.254.109.518.227.8.089.226.208.45.375.724a.096.096 0 0 1-.059.048 3.396 3.396 0 0 0-1.639 1.573l.01-.01Zm.691.273c-.247.557-.168 1.494 0 2.373.178.88-.296.996-.592-.029-.455-2.11.997-3.398 1.728-3.809-.672.577-.879.86-1.146 1.465h.01Zm8.887-12.92c-1.027 2.168-3.298 3.672-5.658 5.352-2.36 1.68-2.241 2.969-2.261 4.228-.454-1.757.345-2.87 1.402-3.984 1.057-1.113 3.397-2.178 5.194-4.531 1.797-2.354 1.787-4.717 1.6-6.68.385 1.055.829-.059.8-.674.276 1.934-.04 4.13-1.067 6.299l-.01-.01Z"/>
  <defs>
    <linearGradient id="a" x1="-1812.3" x2="-1552.79" y1="-73.28" y2="1114.11" gradientUnits="userSpaceOnUse">
      <stop stop-color="#F4AB2E"/>
      <stop offset=".15" stop-color="#EEB656"/>
      <stop offset=".35" stop-color="#E8C486"/>
      <stop offset=".55" stop-color="#E4CFAD"/>
      <stop offset=".72" stop-color="#E0D7C8"/>
      <stop offset=".88" stop-color="#DEDCD9"/>
      <stop offset="1" stop-color="#DEDEDF"/>
    </linearGradient>
    <linearGradient id="b" x1="-1784.51" x2="-1637.4" y1="-50.472" y2="771.488" gradientUnits="userSpaceOnUse">
      <stop stop-color="#F4AB2E"/>
      <stop offset=".15" stop-color="#EEB656"/>
      <stop offset=".35" stop-color="#E8C486"/>
      <stop offset=".55" stop-color="#E4CFAD"/>
      <stop offset=".72" stop-color="#E0D7C8"/>
      <stop offset=".88" stop-color="#DEDCD9"/>
      <stop offset="1" stop-color="#DEDEDF"/>
    </linearGradient>
    <linearGradient id="c" x1="-1317.18" x2="-1092.11" y1="-44.285" y2="1030.83" gradientUnits="userSpaceOnUse">
      <stop stop-color="#F4AB2E"/>
      <stop offset=".15" stop-color="#EEB656"/>
      <stop offset=".35" stop-color="#E8C486"/>
      <stop offset=".55" stop-color="#E4CFAD"/>
      <stop offset=".72" stop-color="#E0D7C8"/>
      <stop offset=".88" stop-color="#DEDCD9"/>
      <stop offset="1" stop-color="#DEDEDF"/>
    </linearGradient>
    <linearGradient id="d" x1="-357.57" x2="218.374" y1="-18.979" y2="1349.77" gradientUnits="userSpaceOnUse">
      <stop stop-color="#F4AB2E"/>
      <stop offset=".15" stop-color="#EEB656"/>
      <stop offset=".35" stop-color="#E8C486"/>
      <stop offset=".55" stop-color="#E4CFAD"/>
      <stop offset=".72" stop-color="#E0D7C8"/>
      <stop offset=".88" stop-color="#DEDCD9"/>
      <stop offset="1" stop-color="#DEDEDF"/>
    </linearGradient>
    <linearGradient id="e" x1="-3826.42" x2="-3566.95" y1="-172.52" y2="1014.82" gradientUnits="userSpaceOnUse">
      <stop stop-color="#F4AB2E"/>
      <stop offset=".15" stop-color="#EEB656"/>
      <stop offset=".35" stop-color="#E8C486"/>
      <stop offset=".55" stop-color="#E4CFAD"/>
      <stop offset=".72" stop-color="#E0D7C8"/>
      <stop offset=".88" stop-color="#DEDCD9"/>
      <stop offset="1" stop-color="#DEDEDF"/>
    </linearGradient>
    <linearGradient id="f" x1="-2779.89" x2="-2632.72" y1="-96.019" y2="726.109" gradientUnits="userSpaceOnUse">
      <stop stop-color="#F4AB2E"/>
      <stop offset=".15" stop-color="#EEB656"/>
      <stop offset=".35" stop-color="#E8C486"/>
      <stop offset=".55" stop-color="#E4CFAD"/>
      <stop offset=".72" stop-color="#E0D7C8"/>
      <stop offset=".88" stop-color="#DEDCD9"/>
      <stop offset="1" stop-color="#DEDEDF"/>
    </linearGradient>
    <linearGradient id="g" x1="-3942" x2="-3716.98" y1="-172.506" y2="902.628" gradientUnits="userSpaceOnUse">
      <stop stop-color="#F4AB2E"/>
      <stop offset=".15" stop-color="#EEB656"/>
      <stop offset=".35" stop-color="#E8C486"/>
      <stop offset=".55" stop-color="#E4CFAD"/>
      <stop offset=".72" stop-color="#E0D7C8"/>
      <stop offset=".88" stop-color="#DEDCD9"/>
      <stop offset="1" stop-color="#DEDEDF"/>
    </linearGradient>
    <linearGradient id="h" x1="-3289.97" x2="-2714.14" y1="-305.26" y2="1063.39" gradientUnits="userSpaceOnUse">
      <stop stop-color="#F4AB2E"/>
      <stop offset=".15" stop-color="#EEB656"/>
      <stop offset=".35" stop-color="#E8C486"/>
      <stop offset=".55" stop-color="#E4CFAD"/>
      <stop offset=".72" stop-color="#E0D7C8"/>
      <stop offset=".88" stop-color="#DEDCD9"/>
      <stop offset="1" stop-color="#DEDEDF"/>
    </linearGradient>
    <linearGradient id="i" x1="-25.131" x2="236.533" y1="-53.237" y2="74.674" gradientUnits="userSpaceOnUse">
      <stop stop-color="#F4AB2E"/>
      <stop offset=".15" stop-color="#EEB656"/>
      <stop offset=".35" stop-color="#E8C486"/>
      <stop offset=".55" stop-color="#E4CFAD"/>
      <stop offset=".72" stop-color="#E0D7C8"/>
      <stop offset=".88" stop-color="#DEDCD9"/>
      <stop offset="1" stop-color="#DEDEDF"/>
    </linearGradient>
  </defs>
</svg>
